<svg width="35" height="35" viewBox="0 0 35 35" fill="none" xmlns="http://www.w3.org/2000/svg">
<path d="M17.4956 11.6642C14.2822 11.6642 11.6598 14.2866 11.6598 17.5C11.6598 20.7134 14.2822 23.3358 17.4956 23.3358C20.709 23.3358 23.3314 20.7134 23.3314 17.5C23.3314 14.2866 20.709 11.6642 17.4956 11.6642ZM34.9987 17.5C34.9987 15.0834 35.0206 12.6886 34.8849 10.2764C34.7492 7.47448 34.11 4.9878 32.0611 2.93891C30.0078 0.885649 27.5255 0.250846 24.7236 0.115129C22.307 -0.0205877 19.9123 0.0013022 17.5 0.0013022C15.0834 0.0013022 12.6886 -0.0205877 10.2764 0.115129C7.47448 0.250846 4.9878 0.890027 2.93891 2.93891C0.88565 4.99217 0.250846 7.47448 0.115129 10.2764C-0.0205877 12.693 0.0013022 15.0877 0.0013022 17.5C0.0013022 19.9123 -0.0205877 22.3114 0.115129 24.7236C0.250846 27.5255 0.890028 30.0122 2.93891 32.0611C4.99218 34.1143 7.47448 34.7492 10.2764 34.8849C12.693 35.0206 15.0877 34.9987 17.5 34.9987C19.9166 34.9987 22.3114 35.0206 24.7236 34.8849C27.5255 34.7492 30.0122 34.11 32.0611 32.0611C34.1144 30.0078 34.7492 27.5255 34.8849 24.7236C35.025 22.3114 34.9987 19.9166 34.9987 17.5ZM17.4956 26.4792C12.5266 26.4792 8.51643 22.469 8.51643 17.5C8.51643 12.531 12.5266 8.52081 17.4956 8.52081C22.4646 8.52081 26.4748 12.531 26.4748 17.5C26.4748 22.469 22.4646 26.4792 17.4956 26.4792ZM26.8426 10.2501C25.6824 10.2501 24.7455 9.31322 24.7455 8.15306C24.7455 6.9929 25.6824 6.05602 26.8426 6.05602C28.0027 6.05602 28.9396 6.9929 28.9396 8.15306C28.94 8.42854 28.8859 8.70139 28.7807 8.95597C28.6754 9.21055 28.521 9.44187 28.3262 9.63666C28.1314 9.83146 27.9001 9.98592 27.6455 10.0912C27.3909 10.1964 27.1181 10.2504 26.8426 10.2501Z" fill="#197672"/>
</svg>
