<svg width="36" height="35" viewBox="0 0 36 35" fill="none" xmlns="http://www.w3.org/2000/svg">
<path id="icon" d="M32.472 8.09354C27.2219 -0.000267552 16.5031 -2.40654 8.19053 2.62475C0.0967168 7.65604 -2.5283 18.5936 2.72174 26.6874L3.15924 27.3437L1.40923 33.9062L7.97178 32.1562L8.62803 32.5937C11.4718 34.125 14.5343 35 17.5969 35C20.8781 35 24.1594 34.125 27.0032 32.375C35.097 27.1249 37.5033 16.4061 32.472 8.09354ZM27.8782 24.9374C27.0032 26.2499 25.9094 27.1249 24.3782 27.3437C23.5031 27.3437 22.4094 27.7812 18.0344 26.0312C14.3156 24.2812 11.2531 21.4374 9.06554 18.1561C7.75303 16.6249 7.09677 14.6561 6.87802 12.6873C6.87802 10.9373 7.53427 9.40606 8.62803 8.3123C9.06554 7.87479 9.50304 7.65604 9.94054 7.65604H11.0343C11.4718 7.65604 11.9093 7.65604 12.1281 8.53105C12.5656 9.62481 13.6593 12.2498 13.6593 12.4686C13.8781 12.6873 13.8781 13.1248 13.6593 13.3436C13.8781 13.7811 13.6593 14.2186 13.4406 14.4373C13.2218 14.6561 13.0031 15.0936 12.7843 15.3123C12.3468 15.5311 12.1281 15.9686 12.3468 16.4061C13.2218 17.7186 14.3156 19.0311 15.4093 20.1249C16.7218 21.2186 18.0344 22.0937 19.5656 22.7499C20.0031 22.9687 20.4406 22.9687 20.6594 22.5312C20.8781 22.0937 21.9719 20.9999 22.4094 20.5624C22.8469 20.1249 23.0656 20.1249 23.5031 20.3436L27.0032 22.0937C27.4407 22.3124 27.8782 22.5312 28.0969 22.7499C28.3157 23.4062 28.3157 24.2812 27.8782 24.9374Z" fill="#197672"/>
</svg>
